<svg width="512" height="512" viewBox="0 0 512 512" fill="none" xmlns="http://www.w3.org/2000/svg">
<g clip-path="url(#clip0_1_2)">
<mask id="mask0_1_2" style="mask-type:luminance" maskUnits="userSpaceOnUse" x="0" y="0" width="512" height="512">
<path d="M512 0H0V512H512V0Z" fill="white"/>
</mask>
<g mask="url(#mask0_1_2)">
<path d="M437.019 437.02C337.045 536.994 174.955 536.994 74.9795 437.02C-24.9945 337.046 -24.9945 174.955 74.9795 74.9798C75.0155 74.9798 305.038 7.01284 405.013 106.987C504.988 206.961 437.088 436.95 437.019 437.02Z" fill="#FCDD09"/>
<path d="M437.019 437.02C536.993 337.046 536.993 174.955 437.019 74.9799C337.045 -24.9951 174.955 -24.9941 74.9805 74.9799L437.019 437.02Z" fill="#078930"/>
<path d="M255.923 178L275.26 237.518H337.847L287.215 274.304L306.553 333.826L255.923 297.041L205.292 333.826L224.633 274.304L174 237.518H236.584L255.923 178Z" fill="#DA121A"/>
</g>
</g>
<defs>
<clipPath id="clip0_1_2">
<rect width="512" height="512" fill="white"/>
</clipPath>
</defs>
</svg>
