<svg xmlns="http://www.w3.org/2000/svg" xmlns:xlink="http://www.w3.org/1999/xlink" width="512" height="512"><defs><path id="a" d="M256 512c141.385 0 256-114.615 256-256S397.385 0 256 0 0 114.615 0 256s114.615 256 256 256Z"/></defs><g fill="none" fill-rule="evenodd"><mask id="b" fill="#fff"><use xlink:href="#a"/></mask><use xlink:href="#a" fill="#000" fill-rule="nonzero"/><path fill="#002488" d="M0 0h512v199H0z" mask="url(#b)"/><g fill="green" fill-rule="nonzero"><path d="M161.786 298.94c.199-.193 3.324.845 7.031 2.287 3.708 1.442 8.497 2.804 10.558 2.938 3.631.162 16.49 6.287 16.365 7.76-.024 1.376-19.466-4.569-26.281-8.031-8.18-4.077-8.373-4.277-7.673-4.954Z"/><path d="M185.757 301.771c1.565 3.826 7.118 6.441 14.57 7.085 5.043.358 2.73-1.816-4.318-4.385-3.31-1.058-7.166-3.055-8.804-4.243-2.883-2.235-2.883-2.235-1.448 1.543Zm-70.192-28.626c4.028 5.979 8.611 10.29 17.5 16.27 6.528 4.45 12.222 7.926 12.5 7.647.555-.695-31.945-30.87-34.167-31.704-.832-.279.973 3.198 4.167 7.787Zm83.617 31.838c3.016 1.407 6.866 2.517 8.807 2.582 2.295.077 1.686-.488-2.597-2.156-3.352-1.31-7.362-3.513-9.142-4.878-3.19-2.611-3.19-2.611-2.856-.315.19 1.313 2.596 3.353 5.788 4.767Zm-18.757-27.13c1.944 7.787 10 22.11 12.777 22.666 2.5.416 2.5.278.417-2.086-3.472-4.033-10.972-18.773-10.972-21.554 0-1.529-.694-2.642-1.527-2.642-.973 0-1.251 1.39-.696 3.616Zm-83.48-9.764c-.049.273 2.558 2.287 5.825 4.558 3.267 2.271 7.072 5.485 8.336 7.12 2.164 2.923 14.427 10.171 15.577 9.245 1.127-.79-14.668-13.603-21.347-17.324-7.95-4.51-8.223-4.558-8.392-3.6Zm4.474 10.697c0 .279 2.916 1.808 6.528 3.477 3.611 1.669 7.916 4.171 9.444 5.562 2.638 2.502 15.972 7.509 16.944 6.397.972-.974-16.806-10.847-24.027-13.35-8.612-3.059-8.89-3.059-8.89-2.086Zm61.942 4.907c5.278 9.733 10.695 16.13 12.917 15.435 1.11-.417-1.39-4.45-6.806-10.985-4.86-5.702-9.028-10.707-9.444-11.124-.416-.418 1.112 2.641 3.333 6.674Zm6.826-3.794c0 1.529 5.416 12.097 8.61 16.547 1.806 2.503 3.89 3.893 6.25 3.893 3.473 0 3.473 0-1.805-5.979-3.055-3.198-7.083-8.065-9.166-10.707-2.084-2.642-3.889-4.31-3.889-3.754Zm-12.77 4.49c0 2.085 10.153 15.99 11.726 15.99.715 0-1.001-3.337-4.004-7.37-6.72-9.177-7.721-10.15-7.721-8.62Zm-9.59 38.318c-9.167 3.616-11.111 4.867-11.111 6.814 0 .834.972.695 2.5-.557 1.25-1.251 5.833-2.92 10-3.893 4.166-.973 9.166-2.642 11.11-3.615l3.472-1.808h-4.166c-2.222.139-7.64 1.53-11.805 3.06Zm-26.028-23.622c6.848 6.235 29.753 18.014 41.358 21.48 3.145.925 8.247 1.137 11.13.53l5.375-1.07-5.304-2.803c-8.557-4.428-22.609-13.81-27.653-18.335-5.495-4.952-5.317-3.241.274 3.6 2.184 2.755 8.64 7.505 14.302 10.474 5.708 3.099 9.696 5.937 9.043 6.175-1.696.618-17.362-8.323-29.278-16.707-12.947-9.191-13.481-9.441-8.663-3.502 2.363 2.839 6.73 6.722 9.899 8.527 3.085 1.983 5.198 3.729 4.545 3.966-1.304.476-9.422-3.965-20.02-10.757-2.955-2.03-6.979-4.56-8.723-5.7-1.923-1.222-.202.666 3.715 4.122Zm1.008-1.944-5.555 1.808 4.166.695c2.222.556 5.14.278 6.528-.417 1.25-.695 3.75-1.252 5.555-1.39 3.056 0 3.056-.14.417-1.252-3.472-1.53-4.305-1.53-11.11.556Zm6.846 3.774c-2.361 1.808-2.223 1.947 2.916 1.113 3.056-.418 7.5-1.252 9.722-1.808 3.612-.974 3.334-1.112-2.916-1.252-4.167-.139-8.056.695-9.722 1.947Zm-34.504-14.62c22.916 4.171 68.887 19.606 66.11 22.248-.695.696-13.612-2.502-15.417-3.754-.695-.695-7.5-.417-15 .557-14.027 1.529-16.388 2.78-16.11 8.482.138 2.781.138 2.781.832 0 1.25-5.145 3.334-6.257 11.25-6.257 8.611 0 32.222 3.476 42.639 6.257 13.888 3.893 14.305 3.893 9.722 1.39-5.972-3.337-15-9.456-16.667-11.263-3.055-3.476-58.47-18.772-66.526-18.494-3.75.278-3.889.278-.833.834Zm10.536 7.41c-1.667 1.252-3.473 4.171-3.889 6.535-.833 4.033-.833 4.033 1.389 1.39 5.834-7.37 6.25-7.647 13.472-7.786 5.834-.14 6.667-.418 3.889-1.252-5.834-1.808-11.667-1.39-14.861 1.113Zm70.791 8.58c1.111 1.947 11.945 7.37 12.778 6.536.417-.417-.833-1.53-2.5-2.503-1.805-.973-4.166-2.502-5.138-3.615-2.223-2.085-6.389-2.503-5.14-.417Zm.836 13.212c1.11 1.947 11.945 7.37 12.778 6.536.417-.417-.833-1.53-2.5-2.503-1.805-.973-4.166-2.502-5.139-3.615-2.222-2.086-6.388-2.504-5.139-.418Zm7.477-6.394c-2.59 1.003-5.196 2.815-6.005 4.113-.957 1.533-.147 1.548 3.195-.133 2.62-1.312 6.403-2.389 8.479-2.566 3.886-.192 3.886-.192 1.413-1.739-1.414-.884-4.417-.796-7.082.325Zm-15.994 9.98c-7.915 7.107-9.666 12.063-7.131 19.426l2.192 6.305-.61-6.38c-.944-8.759 1.414-12.743 10.997-19.661 4.505-3.22 8.084-6.139 7.998-6.404-.471-1.455-9.42 2.918-13.446 6.713Zm-49.003-56.845c4.305 8.205 21.804 27.116 31.526 34.347 2.639 1.947 7.362 3.893 10.278 4.31l5.416.835-4.027-4.45c-6.528-7.092-16.528-20.72-19.722-26.698-3.473-6.536-3.889-4.867-.972 3.476 1.11 3.337 5.555 10.012 9.86 14.74 4.306 4.866 7.084 8.899 6.39 8.899-1.806 0-13.473-13.766-21.805-25.725-9.028-13.071-9.444-13.488-6.945-6.257 1.25 3.476 4.028 8.621 6.389 11.402 2.222 2.92 3.611 5.284 2.916 5.284-1.388 0-7.5-6.953-15.138-16.965-2.084-2.92-5-6.674-6.25-8.343-1.388-1.807-.416.557 2.084 5.145Zm44.8 38.936c0 .974 2.083 3.476 4.582 5.423 7.362 5.562 26.944 14.879 29.444 13.906 1.528-.556-.833-2.086-7.5-4.589-11.666-4.588-22.36-10.707-22.36-12.792 0-1.113 4.583-1.252 15.971-.557 17.083.974 22.222-.973 6.667-2.364-16.388-1.67-26.805-1.252-26.805.973Zm-36.666 14.879c-5.972 1.39-9.166 3.476-9.166 5.978 0 .974.555.834 1.25-.278 1.11-1.807 12.5-5.145 13.61-4.032.278.278-.138 2.363-.971 4.45-.834 2.085-1.111 4.17-.695 4.588.417.556 1.111-.557 1.528-2.086 1.667-5.979 6.805-7.787 19.166-6.674 6.25.556 13.194 1.251 15.417 1.39 2.36.139 5.555.974 7.221 1.947 3.611 1.947 17.639 2.086 16.388.139-.417-.695-3.055-1.669-5.972-2.086-2.778-.417-8.61-1.807-12.916-2.92-8.611-2.224-36.11-2.502-44.86-.416Zm50.716 16.051c-10.467-1.869-15.445-.2-19.68 6.334l-3.612 5.612 4.646-4.41c6.312-6.136 10.899-6.729 22.245-3.428 5.307 1.572 9.808 2.6 9.964 2.368.855-1.269-8.097-5.637-13.563-6.476Zm-13.553-3.874c-19.305 5.283-21.528 7.23-18.75 15.991 1.111 3.337 1.111 3.198 1.25-1.112.14-2.364 1.39-5.702 2.779-7.092 2.5-2.503 13.75-5.702 27.499-7.926 3.333-.417 5.555-1.39 5.139-2.086-1.112-1.808-5.557-1.252-17.917 2.225Zm16.407 6.794c-9.722 4.31-12.916 8.482-12.778 16.269l.14 6.675 1.388-6.257c1.805-8.622 5.278-11.681 16.528-15.297 5.278-1.668 9.583-3.337 9.583-3.615 0-1.53-9.861-.14-14.86 2.225Zm-1.846 11.938c-1.666 2.226-2.916 5.145-2.916 6.675 0 1.808.694 1.39 2.638-1.807 1.528-2.503 4.166-5.423 5.834-6.675 3.194-2.225 3.194-2.225.277-2.225-1.666 0-4.166 1.668-5.833 4.032ZM403.087 410.611a300.73 300.73 0 0 0-1.922 3.263c-4.345-1.292-22.565-9.447-38.163-16.505-15.72-7.114-38.069-16.225-42.263-18.791-3.214-1.973-2.923-3.642 1.007-2.177 3.932 1.466 19.086 8.576 29.811 13.278 12.428 5.55 43.635 17.694 51.53 20.932Zm-79.703-35.62c4.28 2.418 26.934 10.743 42.892 17.303 15.834 6.509 34.327 14.023 38.715 15.162.403-.757.988-1.836 1.808-3.329-8.004-2.96-39.615-14.007-52.229-19.118-10.883-4.324-26.276-10.901-30.256-12.228-3.98-1.327-4.213.352-.93 2.21Zm-4.512 4.735c-3.849-1.67-4.227-.017-1.12 2.121 4.055 2.783 25.897 13.052 41.224 20.98 15.207 7.866 32.976 16.964 37.248 18.482.467-.72 1.143-1.742 2.09-3.158-7.716-3.648-38.244-17.41-50.366-23.603-10.464-5.257-25.226-13.153-29.076-14.822Zm46.073-7.998c-11.378-2.765-27.535-7.133-31.66-7.893-4.127-.76-4.124.935-.616 2.319 4.576 1.798 28.166 6.885 44.881 11.158 16.585 4.24 35.943 9.102 40.446 9.62.294-.807.723-1.956 1.328-3.549-8.338-1.817-41.175-8.352-54.379-11.655Zm-7.085 8.786c-11.095-3.748-26.81-9.51-30.854-10.627-4.044-1.116-4.189.573-.814 2.257 4.401 2.19 27.459 9.316 43.738 15.031 16.153 5.67 35.014 12.205 39.454 13.112.363-.777.89-1.884 1.632-3.419-8.147-2.536-40.292-11.911-53.156-16.354Zm4.011-4.192c-11.274-3.16-27.27-8.092-31.366-8.995-4.097-.903-4.153.79-.695 2.296 4.51 1.957 27.908 7.864 44.464 12.719 16.427 4.817 35.603 10.353 40.086 11.027.322-.795.79-1.929 1.45-3.5-8.269-2.107-40.86-9.785-53.939-13.547Z"/></g><g fill="#FCDD09" fill-rule="nonzero"><path d="m262.987 408.587 4.499 3.216c6.448 4.498 9.995 10.75 9.643 17.201l-.238 5.328 2.116-5.242c2.316-5.485 1.997-13.792-.738-19.944l-1.596-3.588 5.068 2.209c7.241 3.058 12.009 8.433 13.005 14.819l.873 5.26.982-5.57c1.125-5.848-.91-13.904-4.865-19.353l-2.306-3.178 5.416 1.106c7.717 1.483 13.497 5.749 15.798 11.788l1.947 4.965-.197-5.654c-.114-5.954-3.779-13.412-8.777-17.918l-2.915-2.628 5.527-.046c7.857-.155 14.397 2.815 17.901 8.244l2.934 4.449-1.366-5.488c-1.346-5.799-6.48-12.33-12.305-15.698l-3.398-1.965 5.398-1.193c7.653-1.79 14.666-.245 19.22 4.334l3.795 3.742-2.476-5.083c-2.521-5.393-8.9-10.715-15.296-12.796l-3.732-1.212 5.032-2.292c7.113-3.343 14.294-3.292 19.7.239l4.49 2.871-3.477-4.458c-3.587-4.751-10.93-8.626-17.62-9.33l-3.9-.41 4.446-3.29c6.264-4.748 13.298-6.197 19.32-3.866l4.987 1.872-4.327-3.635c-4.495-3.9-12.483-6.163-19.172-5.458l-3.9.409 3.664-4.143c5.141-5.95 11.722-8.828 18.095-7.802l5.267.793-4.987-2.655c-5.207-2.878-13.49-3.43-19.886-1.349l-3.732 1.213 2.724-4.815c3.793-6.89 9.632-11.076 16.079-11.401l5.317-.32-5.43-1.558c-5.69-1.732-13.907-.546-19.732 2.82l-3.398 1.964 1.666-5.278c2.28-7.529 7.12-12.837 13.36-14.497l5.135-1.42-5.635-.394c-5.926-.51-13.716 2.358-18.715 6.864l-2.915 2.63.533-5.509c.666-7.841 4.3-14.04 10.058-16.964l4.728-2.456-5.593.786c-5.904.736-12.927 5.163-16.88 10.611l-2.307 3.179-.621-5.499c-.977-7.806 1.289-14.63 6.314-18.686l4.114-3.387-5.308 1.933c-5.622 1.948-11.571 7.742-14.308 13.894l-1.596 3.59-1.75-5.25c-2.577-7.432-1.777-14.578 2.297-19.591l3.32-4.17-4.79 2.996c-5.094 3.075-9.712 9.981-11.11 16.568l-.816 3.844-2.803-4.77c-4.063-6.736-4.764-13.89-1.822-19.643l2.383-4.769-4.064 3.927c-4.344 4.07-7.427 11.787-7.427 18.52v3.928l-3.732-4.082c-5.373-5.74-7.544-12.594-5.86-18.834l1.338-5.162-3.159 4.69c-3.404 4.882-4.817 13.072-3.418 19.661l.814 3.841-4.497-3.216c-6.448-4.498-9.994-10.75-9.643-17.203l.237-5.328-2.117 5.245c-2.315 5.485-1.996 13.79.738 19.941l1.596 3.59-5.068-2.209c-7.241-3.057-12.009-8.433-13.005-14.817l-.873-5.262-.98 5.569c-1.126 5.847.908 13.906 4.864 19.354l2.305 3.177-5.415-1.107c-7.717-1.483-13.497-5.748-15.798-11.788l-1.947-4.964.198 5.653c.113 5.954 3.778 13.412 8.776 17.917l2.915 2.629-5.527.045c-7.857.156-14.397-2.814-17.901-8.241l-2.935-4.452 1.367 5.487c1.346 5.802 6.48 12.334 12.305 15.701l3.397 1.964-5.397 1.194c-7.653 1.787-14.666.245-19.22-4.335l-3.796-3.742 2.476 5.083c2.522 5.394 8.9 10.713 15.297 12.794l3.732 1.214-5.032 2.291c-7.114 3.344-14.295 3.292-19.702-.239l-4.489-2.871 3.477 4.456c3.587 4.752 10.93 8.627 17.62 9.331l3.901.411-4.446 3.288c-6.264 4.752-13.299 6.196-19.32 3.867L161 333.747l4.327 3.635c4.495 3.901 12.483 6.163 19.172 5.459l3.901-.41-3.665 4.142c-5.141 5.951-11.722 8.828-18.095 7.805l-5.267-.795 4.987 2.656c5.208 2.88 13.49 3.43 19.887 1.35l3.732-1.214-2.725 4.815c-3.793 6.89-9.632 11.077-16.079 11.4l-5.317.318 5.43 1.56c5.691 1.731 13.908.546 19.733-2.82l3.398-1.965-1.665 5.277c-2.28 7.53-7.121 12.84-13.36 14.499l-5.136 1.42 5.635.394c5.927.508 13.718-2.36 18.716-6.867l2.915-2.629-.533 5.51c-.666 7.839-4.3 14.04-10.059 16.962l-4.727 2.457 5.593-.786c5.903-.735 12.927-5.166 16.88-10.613l2.306-3.178.623 5.5c.976 7.806-1.29 14.627-6.316 18.685l-4.114 3.388 5.308-1.934c5.621-1.947 11.573-7.743 14.309-13.894l1.595-3.588 1.75 5.247c2.577 7.434 1.776 14.578-2.297 19.593l-3.32 4.17 4.79-2.996c5.094-3.075 9.712-9.982 11.11-16.57l.816-3.841 2.803 4.77c4.063 6.734 4.764 13.89 1.822 19.642l-2.382 4.77 4.063-3.929c4.344-4.067 7.427-11.784 7.427-18.519v-3.928l3.732 4.083c5.373 5.741 7.544 12.594 5.862 18.834l-1.34 5.162 3.158-4.69c3.405-4.884 4.818-13.072 3.42-19.66l-.816-3.842M249.452 86.959c-5.495 9.06-6.15 16.308-2.4 28.823 1.805 5.84 3.788 14.562 4.622 19.29 1.11 6.673.994 7.309 1.15 8.76 1.39 0 4.545.005 6.005-.004.21-2.31.38-4.977.872-8.646.574-4.276 2.279-13.22 4.11-19.433 3.663-12.414 3.418-20.031-2.277-28.652-2.083-3.198-4.86-5.84-6.111-5.84-1.249 0-4.077 2.442-5.971 5.702Zm26.982 25.636c-7.777 3.338-12.455 12.576-15.01 25.308-.472 2.391-.587 3.235-.824 5.93 1.684.006 2.346.018 3.986.008.36-1.813.618-2.77 1.41-5.342 3.14-9.951 12.384-13.945 11.967-4.628-.139 2.573-1.224 4.009-2.43 5.388 1.491-.372 4.661-1.853 7.23-3.313 14.305-8.622 8.671-29.748-6.329-23.35Zm-31.781 34.484c6.277.028 17.126.078 22.336.05.006-1.34.025-.655.038-1.738-3.836-.033-18.525.02-22.345.02.01.701-.008 1.04-.029 1.668Zm1.847 7.36c-2.263 2.441-5.798 4.267-5.798 4.267s3.127.352 6.043.139c2.916-.213 4.534-.578 6.257-1.415a62.06 62.06 0 0 0-.495 6.838c.424 4.477.904 5.623 1.874 7.802 1.315 1.818 2.08 1.828 3.047-.091 1.046-2.149 1.734-4.36 1.953-7.731-.076-2.527-.217-3.685-.815-6.774 2.018.874 3.292 1.1 6.303 1.372 3.08.277 5.911.141 5.911.141s-4.161-2.09-5.992-4.654c-1.807-2.531-1.422-2.101-2.736-5.361-1.598-.076-9.696-.002-12.265-.002-1.408 2.972-1.55 3.593-3.287 5.469Zm-11.434-41.849c7.777 3.338 12.455 12.576 15.01 25.308.472 2.391.588 3.235.824 5.93-1.684.006-2.346.018-3.987.008-.359-1.813-.618-2.77-1.41-5.343-3.138-9.95-12.383-13.944-11.966-4.627.139 2.572 1.224 4.009 2.43 5.388-1.492-.373-4.661-1.853-7.23-3.314-14.304-8.62-8.671-29.746 6.329-23.35ZM110.701 86.959c-5.494 9.06-6.15 16.308-2.4 28.823 1.806 5.84 3.79 14.562 4.623 19.29 1.11 6.673.994 7.309 1.15 8.76 1.39 0 4.545.005 6.005-.004.21-2.31.38-4.977.872-8.646.575-4.276 2.279-13.22 4.11-19.433 3.663-12.414 3.418-20.031-2.277-28.652-2.084-3.198-4.86-5.84-6.111-5.84-1.249 0-4.077 2.442-5.972 5.702Zm26.983 25.636c-7.777 3.338-12.455 12.576-15.01 25.308-.472 2.391-.588 3.235-.824 5.93 1.684.006 2.346.018 3.987.008.359-1.813.617-2.77 1.41-5.342 3.138-9.951 12.383-13.945 11.966-4.628-.139 2.573-1.224 4.009-2.43 5.388 1.492-.372 4.661-1.853 7.23-3.313 14.304-8.622 8.671-29.748-6.329-23.35Zm-31.781 34.484c6.277.028 17.126.078 22.336.05.006-1.34.025-.655.038-1.738-3.836-.033-18.525.02-22.345.02.01.701-.008 1.04-.029 1.668Zm1.846 7.36c-2.262 2.441-5.797 4.267-5.797 4.267s3.127.352 6.043.139c2.916-.213 4.534-.578 6.257-1.415a62.06 62.06 0 0 0-.495 6.838c.424 4.477.904 5.623 1.873 7.802 1.316 1.818 2.081 1.828 3.049-.091 1.045-2.149 1.733-4.36 1.952-7.731-.076-2.527-.217-3.685-.815-6.774 2.018.874 3.292 1.1 6.302 1.372 3.08.277 5.912.141 5.912.141s-4.161-2.09-5.992-4.654c-1.807-2.531-1.422-2.101-2.736-5.361-1.598-.076-9.696-.002-12.265-.002-1.408 2.972-1.55 3.593-3.288 5.469ZM96.316 112.59c7.777 3.338 12.455 12.576 15.01 25.308.472 2.391.588 3.235.824 5.93-1.684.006-2.346.018-3.987.008-.359-1.813-.617-2.77-1.41-5.343-3.138-9.95-12.383-13.944-11.966-4.627.139 2.572 1.224 4.009 2.43 5.388-1.492-.373-4.661-1.853-7.23-3.314-14.304-8.62-8.671-29.746 6.329-23.35ZM388.202 86.959c-5.495 9.06-6.15 16.308-2.4 28.823 1.805 5.84 3.788 14.562 4.622 19.29 1.11 6.673.994 7.309 1.15 8.76 1.39 0 4.545.005 6.005-.004.21-2.31.38-4.977.872-8.646.575-4.276 2.279-13.22 4.11-19.433 3.663-12.414 3.418-20.031-2.277-28.652-2.084-3.198-4.86-5.84-6.111-5.84-1.249 0-4.077 2.442-5.971 5.702Zm26.982 25.636c-7.777 3.338-12.455 12.576-15.01 25.308-.472 2.391-.587 3.235-.824 5.93 1.684.006 2.345.018 3.986.008.36-1.813.618-2.77 1.41-5.342 3.14-9.951 12.384-13.945 11.967-4.628-.139 2.573-1.224 4.009-2.43 5.388 1.491-.372 4.661-1.853 7.23-3.313 14.305-8.622 8.671-29.748-6.329-23.35Zm-31.781 34.484c6.277.028 17.125.078 22.336.05.006-1.34.025-.655.038-1.738-3.836-.033-18.525.02-22.345.02.01.701-.008 1.04-.029 1.668Zm1.846 7.36c-2.262 2.441-5.797 4.267-5.797 4.267s3.127.352 6.043.139c2.916-.213 4.534-.578 6.257-1.415a62.06 62.06 0 0 0-.495 6.838c.425 4.477.904 5.623 1.873 7.802 1.316 1.818 2.081 1.828 3.048-.091 1.046-2.149 1.734-4.36 1.953-7.731-.076-2.527-.217-3.685-.815-6.774 2.018.874 3.292 1.1 6.303 1.372 3.08.277 5.911.141 5.911.141s-4.161-2.09-5.992-4.654c-1.807-2.531-1.422-2.101-2.737-5.361-1.597-.076-9.695-.002-12.264-.002-1.408 2.972-1.55 3.593-3.287 5.469Zm-11.433-41.849c7.777 3.338 12.455 12.576 15.01 25.308.472 2.391.587 3.235.824 5.93-1.684.006-2.345.018-3.986.008-.36-1.813-.618-2.77-1.41-5.343-3.14-9.95-12.384-13.944-11.967-4.627.139 2.572 1.224 4.009 2.43 5.388-1.491-.373-4.661-1.853-7.23-3.314-14.305-8.62-8.671-29.746 6.329-23.35Z"/></g></g></svg>